# xmcd
#
# Track frame offsets:
#	150
#	13882
#	27401
#	38313
#	53779
#	65776
#	82487
#	93581
#	106468
#	112723
#	122516
#	135192
#	147462
#	156643
#	178581
#	197120
#	219677
#
# Disc length: 3307 seconds
# Revision: 0
# Processed by: cddbd v1.5.2PL0 Copyright (c) Steve Scherf et al.
# Submitted via: dBpowerAMP V12.0
#
DISCID=f70ce911
DTITLE=Various Artist - Count Your Blessings - A Bluegrass Gospel Collection
DYEAR=2011
DGENRE=Gospel
TTITLE0=The Kathy Kallick Band - There's a Higher Power
TTITLE1=The Kathy Kallick Band - Lord Protect My Soul
TTITLE2=Laurie Lewis and Kathy Kallick - Count Your Blessings
TTITLE3=The Kathy Kallick Band - The Messenger
TTITLE4=Laurie Lewis and Kathy Kallick - Daniel Prayed
TTITLE5=Kathy Kallick and Friends - I'll Not Be a Stranger
TTITLE6=The Kathy Kallick Band - Wings
TTITLE7=The Kathy Kallick Band - Late Last Night
TTITLE8=Good Ol' Persons - Center of the World
TTITLE9=Good Ol' Persons - It's Gonna Rain
TTITLE10=The Kathy Kallick Band - God Save Noah the Rainbow Sign
TTITLE11=Kathy Kallick - Row Us Over the Tide
TTITLE12=The Kathy Kallick Band - When I Wake Up to Sleep No More
TTITLE13=Kathy Kallick - Lone Pilgrim
TTITLE14=The Kathy Kallick Band - In the Middle of My Town
TTITLE15=The Kathy Kallick Band - Precious Memories
TTITLE16=Kathy Kallick (I'll Fly Away), Good Ol' Persons (That Home Above) - I'll Fly Away/That Home Above
EXTD=
EXTT0=
EXTT1=
EXTT2=
EXTT3=
EXTT4=
EXTT5=
EXTT6=
EXTT7=
EXTT8=
EXTT9=
EXTT10=
EXTT11=
EXTT12=
EXTT13=
EXTT14=
EXTT15=
EXTT16=
PLAYORDER=
